<svg width="24" height="25" viewBox="0 0 24 25" fill="none" xmlns="http://www.w3.org/2000/svg">
<g clip-path="url(#clip0_2327_98)">
<path d="M20.4907 11.5108L15.4208 14.6713C15.501 14.4628 15.5505 14.2378 15.5505 14C15.5505 13.859 15.5325 13.7233 15.5032 13.5913C17.235 13.4203 18.597 11.9728 18.597 10.196C18.597 9.39876 18.2175 8.47401 17.5823 7.72101L15.954 5.78976C16.0102 5.72376 16.0477 5.64126 16.0477 5.54826C16.0477 5.34126 15.8797 5.17326 15.6727 5.17326H15.6615L16.1572 3.88701C16.3815 3.32301 16.209 3.02151 16.0867 2.89101C16.0027 2.80176 15.7597 2.60826 15.3315 2.75001L14.8095 2.92401L14.2883 2.53251C14.0085 2.32176 13.587 2.32251 13.3088 2.53176L12.786 2.92401L12.264 2.75001C11.8335 2.60901 11.5928 2.80101 11.5088 2.89101C11.3865 3.02151 11.214 3.32301 11.4367 3.88251L11.934 5.17326H11.9228C11.7158 5.17326 11.5478 5.34126 11.5478 5.54826C11.5478 5.64201 11.5853 5.72376 11.6415 5.78976L10.0132 7.72101C9.378 8.47401 8.9985 9.39951 8.9985 10.1975C8.9985 10.8943 9.2205 11.561 9.60675 12.125H8.4255C7.9095 12.125 7.245 12.4003 6.87975 12.7655L5.78625 13.859C5.7165 13.3055 5.24775 12.875 4.6755 12.875H2.625C2.00475 12.875 1.5 13.3798 1.5 14V20C1.5 20.6203 2.00475 21.125 2.625 21.125H4.6755C5.16375 21.125 5.57625 20.8108 5.7315 20.375H13.3005C14.2222 20.375 15.4808 19.8913 16.1663 19.2755L22.059 13.9693C22.344 13.6865 22.5 13.3108 22.5 12.911C22.5 11.9188 21.5062 11.1403 20.4907 11.5108ZM5.0505 20C5.0505 20.2063 4.88175 20.375 4.6755 20.375H2.625C2.41875 20.375 2.25 20.2063 2.25 20V14C2.25 13.7938 2.41875 13.625 2.625 13.625H4.6755C4.88175 13.625 5.0505 13.7938 5.0505 14V20ZM12.7343 3.69876C12.8513 3.73626 12.9788 3.71601 13.0778 3.64326L13.758 3.13251C13.7745 3.12126 13.821 3.12276 13.8367 3.13251L14.517 3.64326C14.6168 3.71676 14.7428 3.73551 14.8613 3.69876L15.4995 3.49026C15.4905 3.52476 15.4778 3.56601 15.4583 3.61326L14.8575 5.17326H12.7372L12.1343 3.60876C12.1148 3.56076 12.102 3.51951 12.093 3.48501L12.7343 3.69876ZM10.5862 8.20401L12.5107 5.92251H15.0855L17.0093 8.20401C17.5253 8.81676 17.8463 9.58026 17.8463 10.1968C17.8463 11.6735 16.6448 12.8743 15.1688 12.8743H15.1658C14.8238 12.4213 14.2852 12.1243 13.6755 12.1243H10.5825C10.0575 11.6203 9.74925 10.928 9.74925 10.1953C9.74925 9.57951 10.0702 8.81751 10.5862 8.20401ZM21.5445 13.424L15.6645 18.7175C15.1185 19.2095 14.0362 19.625 13.3005 19.625H5.8005V14.9053L7.41 13.2958C7.635 13.0715 8.109 12.875 8.4255 12.875H13.6755C14.2957 12.875 14.8005 13.3798 14.8005 14C14.8005 14.6203 14.2957 15.125 13.6755 15.125H9.75C9.543 15.125 9.375 15.293 9.375 15.5C9.375 15.707 9.543 15.875 9.75 15.875H13.6755H14.0505C14.5312 15.875 15.2265 15.6755 15.6345 15.4213L20.781 12.2038C21.303 12.0365 21.7493 12.4288 21.7493 12.911C21.75 13.1098 21.672 13.2973 21.5445 13.424Z" fill="black"/>
<path d="M13.3968 9.30051L13.942 9.50001C14.0463 9.53826 14.1295 9.61401 14.1768 9.71376C14.2233 9.81426 14.2285 9.92601 14.1903 10.0303C14.1303 10.1938 13.9743 10.3033 13.8003 10.3033H13.7988C13.6803 10.3033 13.5693 10.2575 13.4875 10.1758C13.4455 10.133 13.414 10.088 13.3945 10.04C13.315 9.84801 13.0938 9.76026 12.904 9.83751C12.7128 9.91701 12.6228 10.1368 12.7023 10.328C12.76 10.466 12.844 10.592 12.955 10.7038C13.0878 10.8373 13.249 10.9295 13.4223 10.9873V11.297C13.4223 11.504 13.5903 11.672 13.7973 11.672C14.0043 11.672 14.1723 11.504 14.1723 11.297V10.988C14.5 10.877 14.7715 10.6243 14.8945 10.286C15.0018 9.99276 14.9875 9.67626 14.8555 9.39501C14.7243 9.11376 14.491 8.90076 14.1993 8.79351L13.6533 8.59326C13.5498 8.55576 13.4665 8.48076 13.42 8.38026C13.3728 8.28051 13.3683 8.16876 13.4065 8.06376C13.4665 7.90026 13.6225 7.79076 13.7965 7.79076C13.8925 7.81176 14.0268 7.83651 14.1093 7.91826C14.1505 7.96026 14.1813 8.00526 14.2038 8.05776C14.2855 8.24751 14.506 8.33601 14.6965 8.25501C14.887 8.17326 14.9748 7.95276 14.893 7.76226C14.8338 7.62426 14.7498 7.49901 14.641 7.39026C14.5075 7.25676 14.3463 7.16376 14.173 7.10676V6.79776C14.173 6.59076 14.005 6.42276 13.798 6.42276C13.591 6.42276 13.423 6.59076 13.423 6.79776V7.12251C13.105 7.23876 12.8238 7.47726 12.7023 7.80876C12.595 8.10201 12.6093 8.41851 12.7405 8.69976C12.8718 8.98251 13.1058 9.19551 13.3968 9.30051Z" fill="black"/>
</g>
<defs>
<clipPath id="clip0_2327_98">
<rect width="24" height="24" fill="white" transform="translate(0 0.5)"/>
</clipPath>
</defs>
</svg>
