<svg width="24" height="25" viewBox="0 0 24 25" fill="none" xmlns="http://www.w3.org/2000/svg">
<path d="M2.3999 3.61504C2.3999 3.29678 2.52633 2.99155 2.75137 2.76651C2.97642 2.54147 3.28164 2.41504 3.5999 2.41504H6.1835C6.46755 2.41517 6.74234 2.51606 6.959 2.69975C7.17565 2.88345 7.32012 3.13804 7.3667 3.41824L8.2547 8.74024C8.29713 8.9937 8.25707 9.25409 8.14042 9.48308C8.02377 9.71206 7.83668 9.89755 7.6067 10.0122L5.7491 10.9398C6.41523 12.5906 7.4073 14.0902 8.66603 15.3489C9.92476 16.6076 11.4243 17.5997 13.0751 18.2658L14.0039 16.4082C14.1185 16.1785 14.3038 15.9916 14.5326 15.8749C14.7613 15.7583 15.0214 15.7181 15.2747 15.7602L20.5967 16.6482C20.8769 16.6948 21.1315 16.8393 21.3152 17.0559C21.4989 17.2726 21.5998 17.5474 21.5999 17.8314V20.415C21.5999 20.7333 21.4735 21.0385 21.2484 21.2636C21.0234 21.4886 20.7182 21.615 20.3999 21.615H17.9999C9.3839 21.615 2.3999 14.631 2.3999 6.01504V3.61504Z" fill="black"/>
</svg>
