<svg width="24" height="24" viewBox="0 0 24 24" fill="none" xmlns="http://www.w3.org/2000/svg">
<path d="M15.6002 7.20001C15.6002 8.15479 15.2209 9.07046 14.5458 9.74559C13.8706 10.4207 12.955 10.8 12.0002 10.8C11.0454 10.8 10.1297 10.4207 9.45461 9.74559C8.77948 9.07046 8.4002 8.15479 8.4002 7.20001C8.4002 6.24523 8.77948 5.32955 9.45461 4.65442C10.1297 3.97929 11.0454 3.60001 12.0002 3.60001C12.955 3.60001 13.8706 3.97929 14.5458 4.65442C15.2209 5.32955 15.6002 6.24523 15.6002 7.20001ZM21.6002 9.60001C21.6002 10.2365 21.3473 10.847 20.8973 11.2971C20.4472 11.7471 19.8367 12 19.2002 12C18.5637 12 17.9532 11.7471 17.5031 11.2971C17.0531 10.847 16.8002 10.2365 16.8002 9.60001C16.8002 8.96349 17.0531 8.35304 17.5031 7.90295C17.9532 7.45286 18.5637 7.20001 19.2002 7.20001C19.8367 7.20001 20.4472 7.45286 20.8973 7.90295C21.3473 8.35304 21.6002 8.96349 21.6002 9.60001ZM16.8002 18C16.8002 16.727 16.2945 15.5061 15.3943 14.6059C14.4941 13.7057 13.2732 13.2 12.0002 13.2C10.7272 13.2 9.50626 13.7057 8.60608 14.6059C7.70591 15.5061 7.2002 16.727 7.2002 18V21.6H16.8002V18ZM7.2002 9.60001C7.2002 10.2365 6.94734 10.847 6.49725 11.2971C6.04717 11.7471 5.43672 12 4.8002 12C4.16368 12 3.55323 11.7471 3.10314 11.2971C2.65305 10.847 2.4002 10.2365 2.4002 9.60001C2.4002 8.96349 2.65305 8.35304 3.10314 7.90295C3.55323 7.45286 4.16368 7.20001 4.8002 7.20001C5.43672 7.20001 6.04717 7.45286 6.49725 7.90295C6.94734 8.35304 7.2002 8.96349 7.2002 9.60001ZM19.2002 21.6V18C19.2019 16.7799 18.8921 15.5796 18.3002 14.5128C18.8322 14.3767 19.3883 14.3638 19.926 14.4753C20.4638 14.5867 20.9689 14.8195 21.403 15.1559C21.8371 15.4923 22.1886 15.9234 22.4307 16.4163C22.6729 16.9092 22.7992 17.4508 22.8002 18V21.6H19.2002ZM5.7002 14.5128C5.10829 15.5797 4.79851 16.78 4.8002 18V21.6H1.2002V18C1.19996 17.4505 1.32555 16.9081 1.56733 16.4146C1.80911 15.9211 2.16067 15.4895 2.59506 15.1529C3.02944 14.8163 3.53513 14.5836 4.07337 14.4726C4.6116 14.3617 5.16809 14.3754 5.7002 14.5128Z" fill="#3C6857"/>
</svg>
